# xmcd
#
# Track frame offsets:
#	150
#	24390
#	46577
#	68047
#	86710
#	113217
#	142882
#	161032
#	182892
#	203620
#
# Disc length: 3033 seconds
#
# Revision: 3
# Processed by: cddbd v1.5.2PL0 Copyright (c) Steve Scherf et al.
# Submitted via: EZCDAudioConverter 8.0.2.1
#
DISCID=7d0bd70a
DTITLE=Ý Lan - Hõi Người Tình
DYEAR=1998
DGENRE=
TTITLE0=Vòng tay xuôi
TTITLE1=Tình kỹ nữ
TTITLE2=Tình
TTITLE3=Mùa thu chết
TTITLE4=Mặt trời hãy ngủ yên
TTITLE5=Áo dài quê hương
TTITLE6=Anh ở đâu
TTITLE7=Tình chết theo mùa đông
TTITLE8=Sang ngang
TTITLE9=Người tình không chân dung
EXTD=
EXTT0=
EXTT1=
EXTT2=
EXTT3=
EXTT4=
EXTT5=
EXTT6=
EXTT7=
EXTT8=
EXTT9=
PLAYORDER=
